<?xml version="1.0" encoding="UTF-8"?>
<svg width="128" height="128" viewBox="0 0 128 128" fill="none" xmlns="http://www.w3.org/2000/svg" role="img" aria-label="AI Robot">
  <defs>
    <linearGradient id="bodyGrad" x1="20" y1="14" x2="108" y2="114" gradientUnits="userSpaceOnUse">
      <stop stop-color="#F3E9FF"/>
      <stop offset="1" stop-color="#C9B6FF"/>
    </linearGradient>
    <linearGradient id="faceGrad" x1="32" y1="48" x2="96" y2="96" gradientUnits="userSpaceOnUse">
      <stop stop-color="#2D1F60"/>
      <stop offset="1" stop-color="#1C1446"/>
    </linearGradient>
    <linearGradient id="antennaGrad" x1="0" y1="0" x2="0" y2="18" gradientUnits="userSpaceOnUse">
      <stop stop-color="#FF6AA2"/>
      <stop offset="1" stop-color="#FF277A"/>
    </linearGradient>
    <linearGradient id="goldGrad" x1="0" y1="0" x2="0" y2="10" gradientUnits="userSpaceOnUse">
      <stop stop-color="#FFD86B"/>
      <stop offset="1" stop-color="#FFB800"/>
    </linearGradient>
  </defs>

  <!-- Body -->
  <rect x="18" y="20" width="92" height="92" rx="24" fill="url(#bodyGrad)"/>

  <!-- Antennas -->
  <g transform="translate(0,-6)">
    <circle cx="36" cy="34" r="6" fill="#FF3B8A"/>
    <rect x="35" y="40" width="2" height="12" rx="1" fill="url(#antennaGrad)"/>

    <circle cx="92" cy="34" r="6" fill="#FF3B8A"/>
    <rect x="91" y="40" width="2" height="12" rx="1" fill="url(#antennaGrad)"/>
  </g>

  <!-- Gold top bar -->
  <rect x="48" y="28" width="32" height="10" rx="5" fill="url(#goldGrad)"/>

  <!-- Face window -->
  <rect x="34" y="54" width="60" height="36" rx="14" fill="url(#faceGrad)"/>

  <!-- Eyes -->
  <circle cx="52" cy="72" r="6" fill="#77B5FF"/>
  <circle cx="76" cy="72" r="6" fill="#77B5FF"/>

  <!-- Mouth -->
  <rect x="56" y="84" width="16" height="6" rx="3" fill="#2B225A" opacity=".9"/>
</svg>
